<svg id="Capa_1" enable-background="new 0 0 512.006 512.006" height="512" viewBox="0 0 512.006 512.006" width="512" xmlns="http://www.w3.org/2000/svg"><g id="XMLID_804_"><path id="XMLID_1142_" d="m192.003 184c0 74.99 61.009 136 136 136s136-61.01 136-136-61.009-136-136-136-136 61.01-136 136zm20 0c0-63.963 52.038-116 116-116s116 52.037 116 116-52.038 116-116 116-116-52.037-116-116z"/><path id="XMLID_1148_" d="m.003 457.668c0 14.515 5.652 28.16 15.916 38.423 10.263 10.263 23.908 15.915 38.422 15.915s28.16-5.652 38.423-15.915l107.552-107.552c1.876-1.876 2.929-4.419 2.929-7.071s-1.054-5.195-2.929-7.071l-3.45-3.45 31.999-31.998c28.629 18.381 62.661 29.051 99.138 29.051 101.458 0 184-82.542 184-184s-82.542-184-184-184-184 82.542-184 184c0 36.477 10.67 70.509 29.052 99.139l-31.998 31.998-3.444-3.444c-1.875-1.875-4.419-2.929-7.071-2.929s-5.196 1.054-7.071 2.929l-107.553 107.553c-10.263 10.263-15.915 23.908-15.915 38.422zm328-109.668c-90.43 0-164-73.57-164-164s73.57-164 164-164 164 73.57 164 164-73.57 164-164 164zm-145.279 8.804-27.525-27.525 29.728-29.728c8.183 10.112 17.412 19.342 27.525 27.525zm-162.721 100.864c0-9.171 3.572-17.794 10.057-24.279l100.482-100.481 48.561 48.561-100.482 100.479c-6.486 6.486-15.109 10.058-24.281 10.058-9.171 0-17.794-3.571-24.28-10.058-6.486-6.485-10.057-15.108-10.057-24.28z"/><path id="XMLID_1222_" d="m343.542 173.891c-1.832-.647-3.697-1.32-5.565-2.012v-35.78c4.475 1.597 7.381 3.656 7.537 3.768 4.399 3.287 10.634 2.411 13.955-1.973 3.335-4.402 2.47-10.675-1.932-14.01-.5-.379-8.177-6.081-19.56-8.543v-7.341c0-5.522-4.477-10-10-10s-10 4.478-10 10v7.283c-1.116.244-2.24.521-3.378.863-12.56 3.773-21.945 14.498-24.492 27.988-2.334 12.364 1.659 24.314 10.421 31.187 4.448 3.489 9.951 6.677 17.449 10.029v47.112c-5.908-.563-9.917-2.194-16.523-6.515-4.623-3.022-10.82-1.727-13.843 2.896-3.023 4.622-1.727 10.819 2.895 13.843 10.731 7.019 18.134 9.225 27.471 9.834v7.48c0 5.522 4.477 10 10 10s10-4.478 10-10v-8.637c17.624-4.521 28.92-19.595 31.419-34.461 3.266-19.423-6.883-36.305-25.854-43.011zm-30.671-14.306c-2.819-2.212-4.041-6.819-3.111-11.739.786-4.165 3.35-9.093 8.217-11.585v26.716c-1.892-1.098-3.62-2.227-5.106-3.392zm36.802 54.002c-1.057 6.287-5.02 12.922-11.696 16.492v-36.912c13.124 5.271 12.287 16.903 11.696 20.42z"/></g></svg>